<svg width="622" height="135" xmlns="http://www.w3.org/2000/svg">
    <g fill="none" fill-rule="evenodd">
        <path
            d="M198.963 86.586c0 1.02-.463 1.943-1.388 2.765-.926.822-2.097 1.234-3.511 1.234-1.417 0-2.56-.412-3.431-1.234-.871-.822-1.306-1.744-1.306-2.765V64.635c0-2.723-.723-4.921-2.164-6.594-1.444-1.673-3.553-2.51-6.33-2.51-2.396 0-4.397.695-6.002 2.084-1.607 1.39-2.464 3.588-2.573 6.594v22.377c0 1.02-.422 1.943-1.265 2.765-.845.822-1.974 1.234-3.39 1.234-1.47 0-2.654-.412-3.552-1.234-.9-.822-1.348-1.744-1.348-2.765v-50.71c0-1.021.449-1.942 1.348-2.765.898-.821 2.082-1.233 3.553-1.233 1.415 0 2.544.412 3.389 1.233.843.823 1.265 1.745 1.265 2.766v15.91l.49.085c.98-1.644 2.314-2.992 4.002-4.042 1.687-1.05 3.729-1.574 6.125-1.574 2.994 0 5.512.498 7.554 1.49 2.042.993 3.688 2.326 4.94 3.998 1.253 1.674 2.165 3.616 2.737 5.828.57 2.213.857 4.539.857 6.977v22.037zm21.968-31.991c-2.45 0-4.398.808-5.84 2.424-1.442 1.617-2.274 3.759-2.49 6.424h16.66v-1.276c0-2.325-.776-4.169-2.327-5.53-1.553-1.361-3.553-2.042-6.004-2.042zm17.394 9.019c0 2.666-.49 4.538-1.47 5.615-.98 1.078-2.612 1.616-4.9 1.616H212.6v2.213c0 2.722.804 4.907 2.41 6.551 1.606 1.645 3.879 2.467 6.819 2.467 1.47 0 2.817-.098 4.042-.297 1.225-.198 2.191-.469 2.9-.809a81.587 81.587 0 0 0 2.205-1.19c.707-.397 1.36-.597 1.96-.597 1.088 0 1.931.34 2.531 1.022.598.68.925 1.56.98 2.638 0 .908-.382 1.815-1.143 2.721-.763.909-1.797 1.732-3.103 2.468-1.308.738-2.846 1.349-4.614 1.83-1.77.481-3.662.723-5.676.723-2.776 0-5.309-.455-7.595-1.362-2.286-.906-4.26-2.127-5.92-3.659a16.319 16.319 0 0 1-3.88-5.403c-.927-2.069-1.388-4.267-1.388-6.593v-9.019c0-2.495.449-4.85 1.348-7.062.898-2.212 2.136-4.14 3.714-5.785 1.58-1.645 3.458-2.949 5.636-3.914 2.177-.964 4.573-1.446 7.186-1.446 3.103 0 5.744.524 7.922 1.574s3.96 2.411 5.35 4.084a16.563 16.563 0 0 1 3.061 5.573c.654 2.042.98 4.055.98 6.041zm30.053-.255c0-2.836-.667-4.835-2.001-6-1.334-1.161-3.226-1.743-5.675-1.743-1.417 0-2.696.27-3.84.808a8.89 8.89 0 0 0-2.94 2.213 10.693 10.693 0 0 0-1.918 3.19c-.463 1.19-.694 2.468-.694 3.829v8.168c0 2.04.735 3.8 2.205 5.274 1.47 1.477 3.294 2.213 5.47 2.213a9.66 9.66 0 0 0 3.472-.64 8.927 8.927 0 0 0 2.98-1.87c.87-.821 1.58-1.858 2.124-3.105.544-1.248.817-2.693.817-4.34v-7.997zm4.573 27.652c-1.362 0-2.464-.412-3.307-1.234-.845-.821-1.266-1.745-1.266-2.765V85.65l-.735-.255a16.601 16.601 0 0 1-1.593 2.04 8.926 8.926 0 0 1-2.082 1.66c-.817.482-1.784.85-2.9 1.106-1.115.256-2.49.384-4.123.384-2.613 0-4.9-.498-6.86-1.49s-3.567-2.282-4.818-3.871c-1.253-1.588-2.193-3.403-2.818-5.445a21.363 21.363 0 0 1-.94-6.296v-7.488c0-2.382.41-4.735 1.226-7.062a19.929 19.929 0 0 1 3.593-6.296c1.579-1.872 3.566-3.39 5.962-4.551 2.395-1.163 5.198-1.745 8.412-1.745 2.993 0 5.579.425 7.758 1.277 2.176.85 3.96 2.028 5.349 3.53 1.388 1.504 2.409 3.276 3.063 5.318.653 2.042.979 4.284.979 6.722v23.823c0 1.02-.436 1.944-1.306 2.765-.872.822-2.07 1.234-3.594 1.234zm11.35-55.134c0-1.021.45-1.943 1.348-2.765.899-.822 2.083-1.234 3.553-1.234 1.415 0 2.544.412 3.389 1.234.843.823 1.266 1.744 1.266 2.765v50.709c0 1.02-.423 1.944-1.266 2.765-.845.822-1.974 1.234-3.39 1.234-1.47 0-2.653-.412-3.552-1.234-.898-.821-1.347-1.744-1.347-2.765v-50.71zm18.374 11.316V38.43c0-1.02.436-1.942 1.307-2.765.87-.822 2.068-1.234 3.593-1.234 1.415 0 2.544.412 3.39 1.234.843.823 1.265 1.744 1.265 2.765v8.764h6.044c.924 0 1.741.354 2.45 1.063.706.71 1.061 1.631 1.061 2.766 0 1.248-.355 2.226-1.062 2.935-.708.71-1.525 1.063-2.449 1.063h-6.044v20.59c0 2.383.3 4 .898 4.85.6.85 1.47 1.276 2.613 1.276 1.09 0 2.014-.097 2.778-.297.76-.199 1.633-.298 2.613-.298 1.251 0 2.164.355 2.735 1.064.572.71.858 1.687.858 2.935 0 1.078-.274 1.956-.817 2.637-.545.681-1.265 1.234-2.164 1.66-.898.425-1.933.723-3.103.893-1.172.17-2.409.255-3.716.255-4.247 0-7.35-1.148-9.31-3.447-1.96-2.297-2.94-6.253-2.94-11.868V55.02h-3.267c-.926 0-1.742-.353-2.449-1.063-.709-.709-1.062-1.687-1.062-2.935 0-1.135.353-2.056 1.062-2.766.707-.709 1.523-1.063 2.45-1.063h3.266zm62.31 39.393c0 1.021-.464 1.944-1.388 2.765-.926.822-2.097 1.234-3.511 1.234-1.417 0-2.561-.412-3.43-1.234-.872-.82-1.307-1.744-1.307-2.765v-21.95c0-2.724-.723-4.922-2.165-6.595-1.443-1.672-3.552-2.51-6.33-2.51-2.395 0-4.396.695-6.001 2.084-1.607 1.391-2.464 3.59-2.573 6.595v22.376c0 1.021-.422 1.944-1.265 2.765-.844.822-1.974 1.234-3.39 1.234-1.47 0-2.653-.412-3.551-1.234-.9-.82-1.35-1.744-1.35-2.765V35.877c0-1.02.45-1.943 1.35-2.766.898-.82 2.082-1.233 3.552-1.233 1.415 0 2.545.412 3.389 1.233.843.823 1.265 1.745 1.265 2.766v15.91l.49.085c.98-1.644 2.314-2.99 4.002-4.04 1.687-1.05 3.729-1.575 6.125-1.575 2.993 0 5.513.497 7.555 1.49 2.04.992 3.687 2.325 4.94 3.998 1.25 1.674 2.163 3.615 2.736 5.828.572 2.212.857 4.538.857 6.977v22.036zm6.37-36.245c0-1.02.448-1.942 1.347-2.765.898-.82 2.082-1.234 3.552-1.234 1.415 0 2.544.413 3.389 1.234.844.823 1.266 1.744 1.266 2.765v36.245c0 1.022-.422 1.944-1.266 2.765-.845.823-1.974 1.235-3.39 1.235-1.47 0-2.653-.412-3.551-1.235-.9-.82-1.347-1.743-1.347-2.765V50.341zm0-15.263c0-1.013.448-1.926 1.347-2.743.898-.815 2.082-1.223 3.552-1.223 1.415 0 2.544.408 3.389 1.223.844.817 1.266 1.73 1.266 2.743v2.024c0 1.012-.422 1.927-1.266 2.742-.845.816-1.974 1.223-3.39 1.223-1.47 0-2.653-.407-3.551-1.223-.9-.815-1.347-1.73-1.347-2.742v-2.024zm32.093 19.517c-2.45 0-4.396.808-5.84 2.425-1.442 1.617-2.273 3.758-2.49 6.423l16.659.001v-1.277c0-2.324-.775-4.169-2.327-5.53-1.551-1.36-3.552-2.042-6.002-2.042zm17.395 9.02c0 2.666-.491 4.538-1.47 5.614-.98 1.08-2.613 1.617-4.9 1.616h-19.354v2.213c0 2.723.803 4.907 2.409 6.551 1.605 1.647 3.878 2.468 6.818 2.468 1.469 0 2.818-.099 4.042-.297 1.226-.199 2.192-.47 2.9-.81a74.97 74.97 0 0 0 2.204-1.19c.708-.397 1.36-.596 1.96-.596 1.09 0 1.933.34 2.533 1.021.597.68.924 1.561.98 2.638 0 .908-.383 1.816-1.145 2.722-.763.908-1.796 1.731-3.102 2.468-1.307.737-2.845 1.348-4.614 1.83-1.77.48-3.662.722-5.677.722-2.776 0-5.307-.454-7.593-1.36-2.286-.907-4.261-2.129-5.921-3.66a16.333 16.333 0 0 1-3.88-5.403c-.926-2.07-1.388-4.267-1.388-6.594v-9.017c0-2.497.449-4.85 1.348-7.063.898-2.212 2.136-4.14 3.716-5.786 1.578-1.644 3.456-2.949 5.635-3.914 2.177-.964 4.572-1.446 7.185-1.446 3.104 0 5.744.525 7.923 1.574 2.176 1.05 3.96 2.411 5.348 4.084a16.565 16.565 0 0 1 3.063 5.573c.654 2.042.98 4.056.98 6.041zm2.693 20.845c-.163-.34-.272-.767-.327-1.277a4.171 4.171 0 0 1 .123-1.532c.135-.51.353-.99.654-1.445.298-.454.72-.794 1.266-1.022.762-.34 1.43-.51 2-.51.572 0 1.075.1 1.512.297.435.2.844.456 1.224.766.38.312.762.611 1.144.894 1.579 1.248 4.055 1.871 7.43 1.871 1.743 0 3.145-.396 4.207-1.19 1.063-.794 1.591-1.844 1.591-3.149 0-1.304-.488-2.34-1.469-3.105-.98-.766-2.218-1.417-3.715-1.957a126.99 126.99 0 0 0-4.818-1.617 20.778 20.778 0 0 1-4.817-2.212 12.134 12.134 0 0 1-3.719-3.616c-.978-1.474-1.47-3.459-1.47-5.956 0-3.969 1.336-7.189 4.002-9.657 2.667-2.467 6.343-3.7 11.026-3.7 2.069 0 3.865.184 5.389.552 1.526.37 2.79.81 3.798 1.32 1.007.51 1.798 1.062 2.368 1.66.572.594.966 1.147 1.183 1.657.382.796.533 1.717.45 2.766-.08 1.05-.502 1.858-1.265 2.425-1.09.737-2.096.978-3.022.723a10.245 10.245 0 0 1-2.53-1.064 44.749 44.749 0 0 0-2.084-.978c-.953-.426-2.381-.638-4.286-.638-1.743 0-3.064.44-3.962 1.32-.898.878-1.346 1.97-1.346 3.274 0 1.078.476 1.914 1.428 2.51.95.596 2.15 1.135 3.594 1.617 1.441.482 3.006.993 4.694 1.531a17.87 17.87 0 0 1 4.696 2.297c1.443.994 2.64 2.312 3.594 3.957.952 1.646 1.43 3.772 1.43 6.38 0 3.972-1.336 7.12-4.002 9.445-2.668 2.326-6.317 3.488-10.945 3.488-1.688 0-3.334-.156-4.94-.467-1.607-.313-3.077-.75-4.41-1.319-1.334-.566-2.49-1.219-3.47-1.957-.98-.737-1.716-1.532-2.206-2.382zm36.341-37.266V38.43c0-1.021.435-1.942 1.307-2.765.87-.822 2.068-1.234 3.592-1.234 1.416 0 2.544.412 3.39 1.234.844.823 1.266 1.744 1.266 2.765v8.764h6.043c.924 0 1.741.355 2.451 1.063.706.71 1.06 1.632 1.06 2.766 0 1.248-.354 2.227-1.06 2.935-.71.71-1.527 1.063-2.45 1.063h-6.044v20.59c0 2.383.298 4 .898 4.85.6.85 1.47 1.276 2.613 1.276 1.088 0 2.013-.097 2.776-.297.763-.2 1.634-.298 2.613-.298 1.253 0 2.165.355 2.736 1.064.573.709.86 1.688.86 2.935 0 1.078-.275 1.957-.819 2.637-.545.68-1.266 1.234-2.165 1.66-.897.425-1.932.723-3.102.893-1.172.17-2.409.256-3.716.256-4.247 0-7.35-1.15-9.309-3.447-1.96-2.297-2.94-6.254-2.94-11.868V55.02h-3.268c-.925 0-1.742-.353-2.45-1.063-.708-.71-1.06-1.687-1.06-2.935 0-1.135.352-2.056 1.06-2.766.708-.71 1.525-1.063 2.45-1.063h3.268zm52.06.255c.898-.794 2.082-1.191 3.552-1.191 1.415 0 2.559.412 3.429 1.233.872.823 1.307 1.745 1.307 2.766v42.456c-.054 2.722-.53 5.09-1.428 7.105-.9 2.012-2.123 3.658-3.675 4.935-1.552 1.275-3.376 2.224-5.472 2.849-2.096.624-4.315.937-6.656.937-2.667 0-4.79-.114-6.37-.341-1.58-.228-2.748-.482-3.51-.766-1.798-1.191-2.697-2.637-2.697-4.339 0-1.248.38-2.241 1.144-2.978.762-.737 1.905-1.106 3.43-1.106.599 0 1.604.113 3.022.341 1.415.225 3.075.34 4.98.34 2.56 0 4.479-.611 5.758-1.829 1.28-1.221 1.919-2.936 1.919-5.148v-6.467l-.408-.169c-1.197 1.476-2.571 2.581-4.124 3.317-1.551.737-3.5 1.107-5.84 1.107-2.993 0-5.47-.441-7.43-1.319-1.961-.879-3.511-2.112-4.656-3.701-1.141-1.588-1.946-3.473-2.41-5.658-.461-2.183-.692-4.581-.692-7.189V50.257c0-1.021.462-1.943 1.388-2.766.925-.821 2.095-1.233 3.51-1.233 1.416 0 2.56.412 3.43 1.233.872.823 1.308 1.745 1.308 2.766v22.717c0 2.667.573 4.708 1.714 6.125 1.145 1.419 3.13 2.128 5.962 2.128 1.96 0 3.689-.496 5.187-1.489 1.497-.992 2.517-2.538 3.06-4.637V49.916c-.052-.851.37-1.672 1.269-2.467zm22.253 24.432c0 3.132.789 5.552 2.369 7.26 1.578 1.708 3.757 2.563 6.533 2.563 2.778 0 4.952-.855 6.533-2.563 1.579-1.708 2.369-4.128 2.369-7.26v-6.149c0-3.417-.79-6.007-2.37-7.773-1.58-1.765-3.754-2.648-6.532-2.648-2.776 0-4.955.883-6.533 2.648-1.58 1.765-2.37 4.356-2.37 7.773v6.15zm-9.637-5.979c0-2.676.369-5.195 1.103-7.559.735-2.362 1.85-4.44 3.348-6.235 1.498-1.794 3.417-3.203 5.758-4.227 2.34-1.025 5.116-1.539 8.33-1.539 3.157.001 5.907.514 8.248 1.54 2.339 1.023 4.273 2.433 5.799 4.226 1.523 1.794 2.654 3.873 3.389 6.235.735 2.364 1.102 4.883 1.102 7.56v5.893c0 2.562-.367 4.983-1.102 7.26-.735 2.278-1.866 4.271-3.39 5.978-1.525 1.71-3.46 3.062-5.798 4.057-2.341.997-5.091 1.495-8.248 1.495-3.214 0-5.99-.498-8.33-1.495-2.341-.995-4.26-2.348-5.758-4.057-1.498-1.708-2.613-3.7-3.348-5.978-.734-2.278-1.103-4.698-1.103-7.26v-5.894zm59.29 24.684c-2.995 0-5.622-.468-7.88-1.403-2.26-.937-4.154-2.24-5.677-3.915-1.524-1.672-2.669-3.658-3.43-5.956-.763-2.297-1.144-4.778-1.144-7.445v-21.44c0-1.022.45-1.942 1.35-2.765.896-.822 2.081-1.234 3.551-1.234 1.416 0 2.544.412 3.39 1.234.843.823 1.266 1.744 1.266 2.765v21.781c0 3.12.816 5.418 2.448 6.891 1.634 1.477 3.676 2.213 6.125 2.213 2.45 0 4.48-.736 6.085-2.213 1.605-1.473 2.41-3.77 2.41-6.89V50.426c0-1.02.435-1.942 1.306-2.765.87-.822 2.013-1.234 3.43-1.234 1.415 0 2.585.412 3.511 1.234.926.823 1.388 1.744 1.388 2.765v21.44c0 2.667-.38 5.148-1.143 7.445-.762 2.298-1.907 4.284-3.429 5.956-1.525 1.674-3.418 2.978-5.677 3.915-2.26.936-4.887 1.403-7.88 1.403zm28.17-7.621v1.402h-2.146v6.22H608.1v-6.22h-2.144v-1.402h6.057zm4.83 4.551c.063.143.127.29.185.438a9.043 9.043 0 0 1 .392-.869l1.957-3.853a.616.616 0 0 1 .108-.155.374.374 0 0 1 .123-.082.418.418 0 0 1 .152-.025h1.552v7.616h-1.56v-4.383c0-.212.012-.442.032-.69l-2.019 3.917a.652.652 0 0 1-.254.277.681.681 0 0 1-.362.094h-.24a.7.7 0 0 1-.366-.094.667.667 0 0 1-.252-.277l-2.03-3.923c.014.123.025.243.031.363.008.121.01.231.01.333v4.383h-1.559V82.97h1.551c.058 0 .11.008.154.025a.378.378 0 0 1 .124.082.59.59 0 0 1 .107.155l1.962 3.87c.07.132.137.271.202.414z"
            fill="#5C308F" />
        <path
            d="M98.656 46.028c.933-.797 2.163-1.196 3.689-1.196 1.47 0 2.657.414 3.562 1.238.904.828 1.357 1.752 1.357 2.778v42.639c-.057 2.734-.551 5.113-1.484 7.136-.933 2.022-2.205 3.673-3.816 4.955-1.612 1.282-3.507 2.236-5.683 2.863-2.176.627-4.481.94-6.912.94-2.77 0-4.975-.114-6.614-.341-1.641-.23-2.856-.485-3.647-.77-1.866-1.196-2.8-2.648-2.8-4.358 0-1.253.395-2.25 1.188-2.991.79-.74 1.979-1.11 3.562-1.11.622 0 1.667.113 3.138.342 1.47.228 3.194.342 5.173.342 2.658 0 4.65-.613 5.98-1.84 1.328-1.224 1.993-2.946 1.993-5.168v-6.494l-.424-.171c-1.245 1.483-2.672 2.594-4.283 3.333-1.612.74-3.634 1.11-6.064 1.11-3.11 0-5.683-.441-7.718-1.324s-3.647-2.122-4.834-3.717c-1.187-1.594-2.022-3.488-2.502-5.682-.481-2.193-.72-4.6-.72-7.221V48.847c0-1.025.479-1.95 1.44-2.777.96-.824 2.177-1.238 3.648-1.238 1.47 0 2.657.414 3.562 1.238.904.827 1.357 1.752 1.357 2.777v22.815c0 2.679.594 4.73 1.78 6.154 1.188 1.424 3.252 2.136 6.192 2.136 2.035 0 3.83-.498 5.385-1.496 1.555-.995 2.615-2.548 3.18-4.657V48.506c-.056-.854.382-1.68 1.315-2.478zM65.538 85.334c0 1.025-.481 1.953-1.442 2.777-.962.826-2.177 1.24-3.646 1.24-1.471 0-2.66-.414-3.562-1.24-.906-.824-1.357-1.752-1.357-2.777V63.29c0-2.735-.75-4.942-2.248-6.623-1.5-1.68-3.69-2.52-6.573-2.52-2.488 0-4.566.697-6.233 2.093-1.668 1.396-2.56 3.603-2.671 6.622v22.473c0 1.025-.44 1.953-1.315 2.777-.877.826-2.05 1.24-3.52 1.24-1.526 0-2.756-.414-3.69-1.24-.932-.824-1.398-1.752-1.398-2.777V34.406c0-1.026.466-1.95 1.399-2.777.933-.825 2.163-1.239 3.69-1.239 1.469 0 2.642.414 3.519 1.24.876.825 1.315 1.75 1.315 2.776v15.98l.508.084c1.018-1.65 2.403-3.004 4.156-4.058 1.752-1.054 3.872-1.58 6.36-1.58 3.109 0 5.726.498 7.846 1.495 2.12.996 3.829 2.336 5.13 4.015 1.3 1.681 2.248 3.632 2.842 5.854.594 2.221.89 4.558.89 7.007v22.131zm1.145-78.122c-32.822 0-59.525 26.905-59.525 59.975 0 33.071 26.703 59.872 59.525 59.977 32.555.102 59.414-26.863 59.526-59.976.114-33.07-26.703-59.976-59.526-59.976zm0 127.164C29.913 134.376 0 104.234 0 67.187S29.914 0 66.683 0c36.77 0 66.684 30.14 66.684 67.188 0 37.047-29.913 67.188-66.683 67.188z"
            fill="#19BDE8" />
        <path
            d="M163.457 102.056h6.75c1.041 0 1.96.133 2.756.398.796.265 1.459.629 1.99 1.09.53.462.933 1.003 1.208 1.622.275.619.412 1.292.412 2.019 0 .687-.127 1.287-.383 1.798a4.88 4.88 0 0 1-.899 1.282c-.344.344-.688.6-1.031.766-.344.167-.614.25-.811.25.354.04.766.148 1.238.325.472.177.919.452 1.341.825.423.374.781.86 1.076 1.46.295.598.442 1.33.442 2.195 0 1.061-.187 1.95-.56 2.667a4.638 4.638 0 0 1-1.547 1.74c-.659.442-1.435.756-2.329.943-.894.186-1.862.28-2.903.28h-6.75v-19.66zm6.573 7.84c.373 0 .737-.039 1.09-.118.354-.078.674-.216.958-.412.285-.197.511-.442.678-.737.167-.295.25-.668.25-1.12 0-.452-.088-.825-.264-1.12a2.076 2.076 0 0 0-.693-.707 2.819 2.819 0 0 0-.958-.369 5.547 5.547 0 0 0-1.061-.103h-3.006v4.686h3.006zm.147 8.666c.354 0 .742-.025 1.165-.074a3.57 3.57 0 0 0 1.193-.354c.374-.186.688-.461.944-.825.255-.363.383-.86.383-1.488 0-.59-.123-1.066-.369-1.43a2.708 2.708 0 0 0-.913-.855 3.762 3.762 0 0 0-1.194-.427 6.78 6.78 0 0 0-1.209-.118h-3.153v5.57h3.153zm10.464 5.895c.196.157.412.31.648.457.236.147.53.22.884.22.472 0 .86-.196 1.165-.589.304-.393.624-1.002.958-1.827l.442-1.12-6.22-13.706h4.01l3.949 9.461 3.478-9.46h3.802l-5.777 13.823c-.275.687-.55 1.395-.825 2.122a10.5 10.5 0 0 1-1.017 2.019 5.222 5.222 0 0 1-1.489 1.518c-.59.393-1.336.59-2.24.59-.786 0-1.44-.094-1.96-.28a4.371 4.371 0 0 1-1.37-.782l1.562-2.446zm25.937-19.13h-6.661v-3.27h17.036v3.27h-6.661v16.389h-3.714v-16.388zm21.634 14.384l-.486.487c-.265.265-.648.545-1.15.84-.5.294-1.139.56-1.915.796-.776.235-1.705.353-2.786.353-1.1 0-2.102-.186-3.006-.56a6.79 6.79 0 0 1-2.314-1.547 6.733 6.733 0 0 1-1.473-2.373c-.344-.923-.516-1.945-.516-3.065 0-1.022.172-1.97.516-2.845a6.957 6.957 0 0 1 1.444-2.284 6.759 6.759 0 0 1 2.21-1.532c.855-.374 1.803-.56 2.845-.56 1.257 0 2.323.23 3.198.692.874.462 1.577 1.066 2.107 1.813a7.45 7.45 0 0 1 1.15 2.535c.235.943.353 1.906.353 2.888v.501h-10.316c0 .511.113.973.34 1.385.225.413.52.767.883 1.062.364.294.777.52 1.238.677.462.158.919.236 1.37.236.669 0 1.254-.064 1.755-.191a7.178 7.178 0 0 0 1.282-.442c.354-.167.643-.344.87-.531a7.7 7.7 0 0 0 .515-.457l1.886 2.122zm-3.39-6.366c0-.354-.068-.708-.205-1.061a2.981 2.981 0 0 0-.605-.958 3.13 3.13 0 0 0-1.017-.708c-.412-.186-.884-.28-1.414-.28-.57 0-1.076.094-1.518.28-.442.187-.81.423-1.105.708-.295.285-.521.604-.678.958a2.594 2.594 0 0 0-.236 1.06h6.779zm6.25-11.289h3.477v19.66h-3.478v-19.66zm15.06 18.363c-.372.452-.942.854-1.709 1.208-.766.354-1.62.53-2.564.53-.57 0-1.135-.088-1.695-.265a4.79 4.79 0 0 1-1.532-.81 4.062 4.062 0 0 1-1.12-1.4c-.285-.57-.428-1.238-.428-2.004 0-.786.148-1.489.442-2.108a4.373 4.373 0 0 1 1.238-1.562c.53-.422 1.17-.742 1.916-.958.747-.216 1.572-.324 2.476-.324a31.3 31.3 0 0 1 1.886.059c.354.02.718.04 1.09.059v-.324c0-.688-.274-1.229-.824-1.621-.55-.393-1.268-.59-2.152-.59-.982 0-1.768.128-2.358.383-.59.256-1.11.53-1.562.825l-1.592-2.357c.275-.197.59-.398.943-.605a7.288 7.288 0 0 1 1.238-.56 10.163 10.163 0 0 1 1.636-.412 12.736 12.736 0 0 1 2.167-.162c.884 0 1.685.122 2.402.368.717.246 1.331.59 1.842 1.032.51.442.904.972 1.179 1.591.275.62.413 1.292.413 2.02v9.284h-3.243l-.088-1.297zm0-4.952l-1.03-.059a24.766 24.766 0 0 0-1.65-.059c-1.121 0-1.907.221-2.36.663-.451.442-.677.948-.677 1.518 0 .59.211 1.051.634 1.386.422.334 1.046.5 1.871.5.413 0 .81-.068 1.194-.206a3.513 3.513 0 0 0 1.017-.56c.295-.236.535-.51.722-.825.187-.314.28-.648.28-1.002v-1.356zm16.241 4.893a6.671 6.671 0 0 1-.648.619 4.744 4.744 0 0 1-.9.59 6.084 6.084 0 0 1-1.149.441 5.32 5.32 0 0 1-1.43.177 5.523 5.523 0 0 1-2.21-.471 5.8 5.8 0 0 1-1.945-1.386c-.57-.609-1.032-1.356-1.385-2.24-.354-.884-.53-1.896-.53-3.036 0-1.08.156-2.028.47-2.844.315-.815.708-1.508 1.18-2.078a6.081 6.081 0 0 1 1.297-1.179 8.9 8.9 0 0 1 1.43-.78 6.951 6.951 0 0 1 1.4-.443 6.256 6.256 0 0 1 1.178-.133c.452 0 .825.015 1.12.045.295.03.56.068.796.117.236.05.452.113.648.192.197.079.423.167.678.265v-6.16h3.449v19.66h-3.36l-.089-1.356zm0-9.02a2.88 2.88 0 0 0-1.164-.574c-.442-.108-1.007-.162-1.695-.162-.687 0-1.257.132-1.71.398a4.114 4.114 0 0 0-1.178 1.046 4.61 4.61 0 0 0-.693 1.37 5.323 5.323 0 0 0-.25 1.636c0 1.18.294 2.162.884 2.948.59.786 1.444 1.179 2.564 1.179.59 0 1.09-.113 1.503-.34a2.978 2.978 0 0 0 1.002-.869c.256-.353.443-.741.56-1.164.118-.422.177-.83.177-1.223v-4.244zm6.22 3.45c0-1.003.181-1.951.545-2.845a7.245 7.245 0 0 1 1.518-2.343 7.17 7.17 0 0 1 2.343-1.592c.914-.393 1.92-.59 3.02-.59 1.101 0 2.108.197 3.022.59a7.17 7.17 0 0 1 2.343 1.592 7.245 7.245 0 0 1 1.518 2.343c.364.894.545 1.842.545 2.844 0 1.002-.181 1.95-.545 2.844a7.418 7.418 0 0 1-1.518 2.358 7.059 7.059 0 0 1-2.343 1.607c-.914.393-1.92.59-3.021.59-1.1 0-2.107-.197-3.021-.59a7.059 7.059 0 0 1-2.343-1.607 7.418 7.418 0 0 1-1.518-2.358 7.479 7.479 0 0 1-.546-2.844zm7.427 4.39c.668 0 1.248-.132 1.739-.397a3.711 3.711 0 0 0 1.223-1.046c.324-.433.565-.904.722-1.415.157-.511.236-1.022.236-1.533a5.24 5.24 0 0 0-.236-1.518 4.384 4.384 0 0 0-.722-1.415 3.788 3.788 0 0 0-1.223-1.031c-.491-.265-1.071-.398-1.74-.398-.667 0-1.247.133-1.738.398-.491.265-.899.609-1.223 1.031a4.384 4.384 0 0 0-.722 1.415 5.24 5.24 0 0 0-.236 1.518c0 .511.078 1.022.236 1.533.157.51.398.982.722 1.415.324.432.732.78 1.223 1.046.491.265 1.07.398 1.739.398zm22.371.708a7.463 7.463 0 0 1-2.299 1.65c-.884.413-1.916.62-3.095.62-1.179 0-2.23-.177-3.154-.53-.923-.355-1.7-.856-2.328-1.504a6.568 6.568 0 0 1-1.444-2.328c-.334-.904-.501-1.906-.501-3.007 0-1.002.181-1.95.545-2.844a7.245 7.245 0 0 1 1.518-2.343 7.17 7.17 0 0 1 2.343-1.592c.914-.393 1.92-.59 3.021-.59 1.12 0 2.142.202 3.066.605.923.403 1.709.948 2.357 1.636l-2.21 2.24a4.28 4.28 0 0 0-1.385-1.061c-.53-.256-1.14-.384-1.828-.384-.668 0-1.248.123-1.739.369a3.714 3.714 0 0 0-1.223.958 3.88 3.88 0 0 0-.722 1.385 5.677 5.677 0 0 0-.236 1.621c0 .53.079 1.051.236 1.562.157.511.398.973.722 1.386.324.412.732.746 1.223 1.002.491.255 1.071.383 1.74.383.687 0 1.316-.133 1.886-.398a4.28 4.28 0 0 0 1.444-1.076l2.063 2.24zm3.98 5.67a.71.71 0 0 0 .18-.018.217.217 0 0 0 .098-.051.15.15 0 0 0 .041-.084.72.72 0 0 0 0-.223.157.157 0 0 0-.037-.078.177.177 0 0 0-.084-.048.546.546 0 0 0-.15-.017h-.199v.519h.152zm1.045 1.084a1.437 1.437 0 0 0 .381-.994 1.512 1.512 0 0 0-.186-.73 1.415 1.415 0 0 0-.493-.516 1.38 1.38 0 0 0-.704-.194c-.192 0-.372.037-.538.111a1.345 1.345 0 0 0-.435.307c-.123.13-.22.283-.29.458a1.5 1.5 0 0 0-.105.564c0 .2.035.387.105.56.07.175.167.326.29.454a1.347 1.347 0 0 0 1.486.317c.159-.065.3-.155.423-.27h-.514c-.087 0-.147-.031-.18-.093l-.218-.547a.18.18 0 0 0-.056-.058.17.17 0 0 0-.086-.018h-.076v.716h-.635v-2.134h.834c.158 0 .294.014.409.043a.8.8 0 0 1 .281.123c.074.053.128.12.163.199a.755.755 0 0 1 .028.46.56.56 0 0 1-.198.307.67.67 0 0 1-.183.102.325.325 0 0 1 .115.09c.03.04.06.084.086.135l.296.608zm-1.002-2.756a1.75 1.75 0 0 1 1.25.516 1.75 1.75 0 0 1 0 2.489 1.802 1.802 0 0 1-.78.453 1.75 1.75 0 0 1-.937 0 1.784 1.784 0 0 1-.778-.453 1.772 1.772 0 0 1-.454-.776 1.724 1.724 0 0 1-.063-.467 1.737 1.737 0 0 1 .24-.89 1.772 1.772 0 0 1 1.522-.872z"
            fill="#5C308F" fill-rule="nonzero" />
    </g>
</svg>